<svg xmlns="http://www.w3.org/2000/svg" viewBox="0 0 391 37.8"><defs><style>.cls-1{fill:#fff;}</style></defs><g id="Layer_2" data-name="Layer 2"><g id="Layer_1-2" data-name="Layer 1"><path class="cls-1" d="M92.2,37.72h2.58v-.83h-1.7V35.81h1.47V35H93.08V34h1.7V33.2H92.2Zm-4.81,0h.89V33.2h-.89v3l-.18-.31-1.84-2.74H84.5v4.52h.89v-3l.17.3Zm-6.46,0-1-1.85a1.38,1.38,0,0,0,.57-.5,1.26,1.26,0,0,0,.2-.73,1.42,1.42,0,0,0-1.57-1.44H77.79v4.52h.87V36h.4l.87,1.69Zm-1.1-3.08c0,.4-.26.6-.67.6h-.5V34h.5C79.57,34,79.83,34.23,79.83,34.64Zm-8.41,3.08H74v-.83H72.3V35.81h1.47V35H72.3V34H74V33.2H71.42Zm-3.69-2.26a2.16,2.16,0,0,0-2.32-2.26H63.74v4.52h1.67A2.16,2.16,0,0,0,67.73,35.46Zm-.92,0a1.29,1.29,0,0,1-1.4,1.43h-.8V34h.8A1.28,1.28,0,0,1,66.81,35.46Zm-1.42-7.94h1V0h-1Zm-1.28,0h.64V.65h-.64Zm-3.18,0h1.91V1.28H60.93Zm-1.27,0h.63V0h-.63ZM60,35.45a2.32,2.32,0,1,0-2.32,2.35A2.25,2.25,0,0,0,60,35.45Zm-.91,0a1.41,1.41,0,1,1-2.81,0,1.41,1.41,0,1,1,2.81,0Zm-1.07-7.93H59V.94h-.95Zm-4.61,0,4-21.94-.62-.12-4,22Zm-3.38,0L57.41,1.16,55.56.65,48.23,27Zm-.86,8.6L47.93,33.2h-1v4.52h.88V34.86l.12.39,1,2.47h.74l1-2.47.13-.39v2.86h.88V33.2h-1L49.4,36.11l-.1.26ZM45.72,27.5,47.56,27,40.78,3,39,3.56ZM45,27.33,38,2.39l-.61.17,7.06,25Zm-10.2.18h1.9V1.28H34.8Zm-1.29,0h.64V.63h-.64Zm-1.58,0h.95V1.9h-.95Zm0,7.94a2.32,2.32,0,1,0-4.63,0,2.32,2.32,0,1,0,4.63,0Zm-.91,0a1.41,1.41,0,1,1-1.4-1.51A1.39,1.39,0,0,1,31,35.45Zm-1.29-7.94h.95V.62h-.95Zm-1.28,0h.64V0h-.64Zm-6.66,6.88a.34.34,0,0,1,0-.2.45.45,0,0,1,.11-.17.48.48,0,0,1,.17-.1.44.44,0,0,1,.2,0,.52.52,0,0,1,.21,0,.36.36,0,0,1,.18.12.57.57,0,0,1,.12.18.42.42,0,0,1,0,.22h.89a1.29,1.29,0,0,0-1.41-1.35,1.3,1.3,0,0,0-1.42,1.35c0,.76.48,1.12,1.29,1.38.55.19.79.36.79.67a.52.52,0,0,1-.59.51.64.64,0,0,1-.7-.69h-.89a1.43,1.43,0,0,0,1.58,1.47,1.35,1.35,0,0,0,1.49-1.36c0-.68-.34-1.08-1.29-1.41-.55-.19-.79-.3-.79-.65ZM16.2,37.71h.88V33.2H16.2Zm-4.44,0h1L11,33.2H10L8.28,37.72h1l.37-1h1.78Zm-.65-1.77H9.88l.53-1.42.09-.25.08.25ZM3.92,37.71H4.8V33.2h-1L2.49,36.11l-.1.26-.1-.26L1,33.2H0v4.52H.87V34.86l.13.39,1,2.47h.74l1-2.47.13-.39Zm34.59-4.52v3.05l-.19-.31-1.83-2.74h-.87v4.52h.87v-3l.18.3,1.84,2.73h.88V33.2Z"/><path class="cls-1" d="M98,32.63a1,1,0,0,0-.9.6,1,1,0,0,0,0,.57,1,1,0,0,0,.26.5,1,1,0,0,0,.5.27.9.9,0,0,0,.56-.06,1,1,0,0,0,.44-.36,1,1,0,0,0,.16-.54,1,1,0,0,0-.07-.38.85.85,0,0,0-.21-.32.87.87,0,0,0-.32-.22A.9.9,0,0,0,98,32.63Zm0,1.84a.81.81,0,0,1-.48-.13.89.89,0,0,1-.33-.39,1,1,0,0,1,0-.5A.85.85,0,0,1,97.4,33a.83.83,0,0,1,.44-.24.86.86,0,0,1,.5,0,.91.91,0,0,1,.38.32.83.83,0,0,1,.15.48.84.84,0,0,1-.23.63.92.92,0,0,1-.28.19A.74.74,0,0,1,98,34.47Z"/><path class="cls-1" d="M98.45,33.93l0-.14c0-.11-.07-.16-.26-.18v0c.22,0,.29-.11.29-.25s-.11-.25-.41-.25h-.47v.09c.12,0,.16,0,.16.06v.71c0,.05,0,.07-.16.08v.08h.49V34c-.12,0-.15,0-.15-.08v-.3H98c.19,0,.24,0,.24.17v.11c0,.13.05.2.25.2h.11V34C98.48,34,98.46,34,98.45,33.93Zm-.53-.38v-.38H98c.16,0,.23,0,.23.18s-.07.2-.23.2Z"/><path class="cls-1" d="M140.24,24.63,136,20.38l-4.24,4.25-1.42-1.42L134.59,19l-4.25-4.24,1.42-1.42L136,17.56l4.24-4.25,1.42,1.42L137.41,19l4.25,4.24Z"/><path class="cls-1" d="M177.32,21.39h-1.14v3.85H173V12.39c1.44-.09,2.67-.19,3.8-.19,3.91,0,6.06,2,6.06,4.64S180.91,21.39,177.32,21.39Zm0-6.43a4.4,4.4,0,0,0-1.14.1v3.76h.93c1.64,0,2.46-.7,2.46-2C179.57,15.85,178.86,15,177.32,15Z"/><path class="cls-1" d="M193.65,25.34l-1-2.37H187.9l-1,2.37h-3.19l6.37-13.14h.41l6.37,13.14Zm-3.39-7.91-1.34,3.16h2.67Z"/><path class="cls-1" d="M204.33,21.39H203.2v3.85H200V12.39c1.44-.09,2.67-.19,3.8-.19,3.9,0,6.06,2,6.06,4.64S207.93,21.39,204.33,21.39Zm0-6.43a4.32,4.32,0,0,0-1.13.1v3.76h.93c1.64,0,2.46-.7,2.46-2C206.59,15.85,205.87,15,204.33,15Z"/><path class="cls-1" d="M213.78,25.34v-13h8.63v2.76H217v2.37h4.93V20.1H217v2.57h5.44v2.77h-8.63Z"/><path class="cls-1" d="M234.54,25.34l-2.37-4.25h-1.64v4.25h-3.18V12.39c1.13-.09,2.36-.19,4-.19,4.21,0,5.86,2,5.86,4.34a4.13,4.13,0,0,1-2.36,3.76l3.18,5Zm-2.78-10.48a4.72,4.72,0,0,0-1.23.1v3.56c.41,0,.62.1,1,.1,1.54,0,2.46-.69,2.46-2S233.1,14.86,231.76,14.86Z"/><path class="cls-1" d="M248.92,20.79c0,2.87-1.23,4.75-4.83,4.75a7.58,7.58,0,0,1-3.7-.89l1-2.57a4.93,4.93,0,0,0,2.67.69c1.23,0,1.85-.79,1.85-2.27V12.3h3.18v8.49Z"/><path class="cls-1" d="M260.94,25.34l-1-2.37h-4.72l-1,2.37h-3.08l6.37-13.14h.41l6.37,13.14Zm-3.29-7.91-1.44,3.16h2.67Z"/><path class="cls-1" d="M278.51,25.34l-.21-6.42-3.8,4.54h-.31l-3.7-4.54-.1,6.42h-3.08l.61-13.14h.41l6.17,7.41,6-7.41h.41l.61,13.14Z"/><path class="cls-1" d="M294,19.61v2.17H292V19.61h-2.15V17.73H292V15.56H294v2.17h2.16v1.88Z"/><path class="cls-1" d="M308.71,25.44c-1.54,0-2.47-.1-4.11-.2V12.39a29.78,29.78,0,0,1,4-.19c5.65,0,8.22,2.76,8.22,6.52S314.36,25.44,308.71,25.44ZM309,14.86a6.05,6.05,0,0,0-1.34.1v7.71a7.47,7.47,0,0,0,1.54.1c3,0,4.32-1.58,4.32-4.05S311.89,14.86,309,14.86Z"/><path class="cls-1" d="M321.14,25.34v-13h8.63v2.76h-5.45v2.37h4.94V20.1h-4.94v2.57h5.45v2.77h-8.63Z"/><path class="cls-1" d="M334.39,25.34v-13h3.19V22.57H343v2.77Z"/><path class="cls-1" d="M354.84,25.34l-1-2.37h-4.73l-1,2.37h-3.18l6.37-13.14h.41L358,25.34Zm-3.39-7.91-1.34,3.16h2.67Z"/><path class="cls-1" d="M372.51,25.54l-8.22-7v6.82H361.1V12.1l.41-.1,8.12,7V12.3h3.18V25.54Z"/><path class="cls-1" d="M384,25.54a6.48,6.48,0,0,1-6.88-6.72c0-3.86,2.77-6.72,7-6.72A6.48,6.48,0,0,1,391,18.82C391.1,22.57,388.22,25.54,384,25.54Zm.1-10.77c-2.15,0-3.59,1.68-3.59,4.05s1.44,4.05,3.59,4.05,3.6-1.68,3.6-4.05S386.27,14.77,384.11,14.77Z"/></g></g></svg>